<svg version="1.2" xmlns="http://www.w3.org/2000/svg" viewBox="0 0 194 60" width="194" height="60">
	<title>hero-audio-svg</title>
	<style>
		.s0 { fill: #ffffff } 
		.s1 { fill: #201830 } 
		.s2 { fill: #a4a0ab } 
		.s3 { fill: none;stroke: #936cdd } 
		.s4 { fill: #936cdd } 
	</style>
	<g>
		<path class="s0" d="m9-1h176c5 0 9 4 9 9v42c0 5-4 9-9 9h-176c-5 0-9-4-9-9v-42c0-5 4-9 9-9z"/>
	</g>
	<path class="s1" d="m60 26c0.6 0 1 0.4 1 1v4c0 0.6-0.4 1-1 1-0.6 0-1-0.4-1-1v-4c0-0.6 0.4-1 1-1z"/>
	<path class="s1" d="m92 26c0.6 0 1 0.4 1 1v4c0 0.6-0.4 1-1 1-0.6 0-1-0.4-1-1v-4c0-0.6 0.4-1 1-1z"/>
	<path class="s2" d="m132 26c0.6 0 1 0.4 1 1v4c0 0.6-0.4 1-1 1-0.6 0-1-0.4-1-1v-4c0-0.6 0.4-1 1-1z"/>
	<path class="s1" d="m100 26c0.6 0 1 0.4 1 1v4c0 0.6-0.4 1-1 1-0.6 0-1-0.4-1-1v-4c0-0.6 0.4-1 1-1z"/>
	<path class="s2" d="m140 26c0.6 0 1 0.4 1 1v4c0 0.6-0.4 1-1 1-0.6 0-1-0.4-1-1v-4c0-0.6 0.4-1 1-1z"/>
	<path class="s2" d="m172 26c0.6 0 1 0.4 1 1v4c0 0.6-0.4 1-1 1-0.6 0-1-0.4-1-1v-4c0-0.6 0.4-1 1-1z"/>
	<path class="s1" d="m68 21c0.6 0 1 0.4 1 1v14c0 0.6-0.4 1-1 1-0.6 0-1-0.4-1-1v-14c0-0.6 0.4-1 1-1z"/>
	<path class="s1" d="m84 21c0.6 0 1 0.4 1 1v14c0 0.6-0.4 1-1 1-0.6 0-1-0.4-1-1v-14c0-0.6 0.4-1 1-1z"/>
	<path class="s2" d="m124 21c0.6 0 1 0.4 1 1v14c0 0.6-0.4 1-1 1-0.6 0-1-0.4-1-1v-14c0-0.6 0.4-1 1-1z"/>
	<path class="s2" d="m164 21c0.6 0 1 0.4 1 1v14c0 0.6-0.4 1-1 1-0.6 0-1-0.4-1-1v-14c0-0.6 0.4-1 1-1z"/>
	<path class="s1" d="m108 21c0.6 0 1 0.4 1 1v14c0 0.6-0.4 1-1 1-0.6 0-1-0.4-1-1v-14c0-0.6 0.4-1 1-1z"/>
	<path class="s2" d="m148 21c0.6 0 1 0.4 1 1v14c0 0.6-0.4 1-1 1-0.6 0-1-0.4-1-1v-14c0-0.6 0.4-1 1-1z"/>
	<path class="s1" d="m76 16c0.6 0 1 0.4 1 1v24c0 0.6-0.4 1-1 1-0.6 0-1-0.4-1-1v-24c0-0.6 0.4-1 1-1z"/>
	<path class="s2" d="m116 16c0.6 0 1 0.4 1 1v24c0 0.6-0.4 1-1 1-0.6 0-1-0.4-1-1v-24c0-0.6 0.4-1 1-1z"/>
	<path class="s2" d="m156 16c0.6 0 1 0.4 1 1v24c0 0.6-0.4 1-1 1-0.6 0-1-0.4-1-1v-24c0-0.6 0.4-1 1-1z"/>
	<path class="s3" d="m34 41.5c-6.9 0-12.5-5.6-12.5-12.5 0-6.9 5.6-12.5 12.5-12.5 6.9 0 12.5 5.6 12.5 12.5 0 6.9-5.6 12.5-12.5 12.5z"/>
	<path class="s4" d="m37.8 28.9c0.1 0.1 0.1 0.1 0 0.2l-5.6 3.3c-0.1 0-0.2 0-0.2-0.1v-6.6c0-0.1 0.1-0.1 0.2-0.1z"/>
</svg>